<?xml version="1.0" encoding="utf-8"?>
<!-- Generator: Adobe Illustrator 21.0.0, SVG Export Plug-In . SVG Version: 6.00 Build 0)  -->
<svg version="1.1" id="Layer_1" xmlns="http://www.w3.org/2000/svg" xmlns:xlink="http://www.w3.org/1999/xlink" x="0px" y="0px"
	 viewBox="0 0 244 58" style="enable-background:new 0 0 244 58;" xml:space="preserve">
<style type="text/css">
	.st0{fill:#F2F2F2;}
</style>
<g>
	<path class="st0" d="M10.4,13.8c0,0.5-0.1,0.9-0.3,1.3c-0.2,0.4-0.4,0.8-0.7,1.1c-0.3,0.3-0.7,0.5-1.1,0.7s-0.9,0.3-1.3,0.3h-6V4.3
		h6c0.4,0,0.8,0.1,1.2,0.3C8.5,4.8,8.8,5,9,5.3s0.4,0.7,0.6,1c0.1,0.4,0.2,0.8,0.2,1.2c0,0.6-0.2,1.2-0.5,1.8S8.6,10.3,8,10.5
		c0.7,0.2,1.3,0.6,1.7,1.2C10.1,12.3,10.4,13,10.4,13.8z M1.9,5.1v5.1h4.7c0.3,0,0.7-0.1,1-0.2C7.8,9.9,8,9.7,8.2,9.5
		c0.2-0.2,0.4-0.5,0.5-0.8c0.1-0.3,0.2-0.6,0.2-1c0-0.3-0.1-0.7-0.2-1C8.6,6.4,8.5,6.1,8.3,5.9C8.1,5.7,7.8,5.5,7.6,5.3
		C7.3,5.2,7,5.1,6.7,5.1H1.9z M9.4,13.6c0-0.3-0.1-0.7-0.2-1c-0.1-0.3-0.3-0.6-0.5-0.8c-0.2-0.2-0.5-0.4-0.8-0.6
		C7.7,11.1,7.4,11,7,11H1.9v5.2h5.1c0.4,0,0.7-0.1,1-0.2c0.3-0.1,0.6-0.3,0.8-0.6s0.4-0.5,0.5-0.8C9.4,14.3,9.4,14,9.4,13.6z"/>
	<path class="st0" d="M12.7,3.9h0.9v11.3c0,0.3,0.1,0.6,0.3,0.8c0.2,0.2,0.5,0.3,0.8,0.3c0.1,0,0.3,0,0.5,0c0.2,0,0.4-0.1,0.5-0.1
		l0.2,0.7c-0.2,0.1-0.5,0.2-0.8,0.2c-0.3,0.1-0.6,0.1-0.8,0.1c-0.5,0-0.9-0.2-1.2-0.5c-0.3-0.3-0.5-0.7-0.5-1.2V3.9z"/>
	<path class="st0" d="M21.2,17.3c-0.7,0-1.3-0.1-1.8-0.4s-1-0.6-1.4-1.1c-0.4-0.4-0.7-1-1-1.5c-0.2-0.6-0.3-1.2-0.3-1.9
		c0-0.7,0.1-1.3,0.4-1.9s0.6-1.1,1-1.5c0.4-0.4,0.9-0.8,1.4-1.1s1.2-0.4,1.8-0.4s1.2,0.1,1.8,0.4c0.6,0.3,1,0.6,1.4,1.1
		c0.4,0.4,0.7,1,1,1.5c0.2,0.6,0.4,1.2,0.4,1.9c0,0.6-0.1,1.3-0.4,1.9c-0.2,0.6-0.6,1.1-1,1.5c-0.4,0.4-0.9,0.8-1.4,1.1
		C22.4,17.1,21.8,17.3,21.2,17.3z M17.5,12.5c0,0.6,0.1,1.1,0.3,1.6c0.2,0.5,0.5,0.9,0.8,1.3c0.3,0.4,0.7,0.6,1.2,0.9
		c0.4,0.2,0.9,0.3,1.4,0.3s1-0.1,1.4-0.3s0.8-0.5,1.2-0.9c0.3-0.4,0.6-0.8,0.8-1.3c0.2-0.5,0.3-1,0.3-1.6c0-0.6-0.1-1.1-0.3-1.6
		c-0.2-0.5-0.5-0.9-0.8-1.3S23,8.9,22.6,8.7c-0.4-0.2-0.9-0.3-1.4-0.3s-1,0.1-1.4,0.3s-0.8,0.5-1.2,0.9c-0.3,0.4-0.6,0.8-0.8,1.3
		C17.6,11.4,17.5,11.9,17.5,12.5z"/>
	<path class="st0" d="M31.7,17.2c-0.6,0-1.2-0.1-1.8-0.4c-0.5-0.3-1-0.6-1.4-1.1s-0.7-1-0.9-1.5s-0.3-1.2-0.3-1.8
		c0-0.6,0.1-1.2,0.3-1.8s0.5-1.1,0.9-1.6c0.4-0.5,0.8-0.8,1.4-1.1s1.1-0.4,1.8-0.4c0.8,0,1.5,0.2,2.1,0.6c0.6,0.4,1.1,0.9,1.5,1.6
		v-2h0.8v9.5c0,0.6-0.1,1.2-0.4,1.7c-0.2,0.5-0.6,0.9-1,1.2c-0.4,0.3-0.9,0.6-1.4,0.7c-0.5,0.2-1.1,0.2-1.7,0.2
		c-0.5,0-1-0.1-1.5-0.2c-0.4-0.1-0.8-0.2-1.1-0.4c-0.3-0.2-0.6-0.4-0.9-0.7c-0.3-0.3-0.5-0.6-0.7-0.9l0.6-0.4
		c0.4,0.6,0.9,1.1,1.5,1.4c0.6,0.3,1.3,0.4,2,0.4c0.5,0,0.9-0.1,1.4-0.2c0.4-0.1,0.8-0.3,1.1-0.6c0.3-0.3,0.6-0.6,0.8-1
		c0.2-0.4,0.3-0.8,0.3-1.4v-2.1c-0.4,0.6-0.9,1.1-1.5,1.5C33.1,17,32.4,17.2,31.7,17.2z M31.9,16.4c0.4,0,0.8-0.1,1.2-0.2
		c0.4-0.1,0.7-0.3,1-0.6c0.3-0.2,0.6-0.5,0.8-0.8c0.2-0.3,0.3-0.6,0.4-0.9v-3.1c-0.1-0.4-0.3-0.7-0.6-1c-0.2-0.3-0.5-0.6-0.8-0.8
		c-0.3-0.2-0.6-0.4-1-0.5c-0.4-0.1-0.7-0.2-1.1-0.2c-0.6,0-1.1,0.1-1.5,0.4c-0.4,0.2-0.8,0.6-1.1,0.9c-0.3,0.4-0.5,0.8-0.7,1.3
		c-0.2,0.5-0.2,1-0.2,1.5c0,0.5,0.1,1,0.3,1.5c0.2,0.5,0.5,0.9,0.8,1.3s0.7,0.7,1.2,0.9S31.4,16.4,31.9,16.4z"/>
	<path class="st0" d="M47.5,17.3c-0.7,0-1.3-0.1-1.8-0.4s-1-0.6-1.4-1.1c-0.4-0.4-0.7-1-1-1.5c-0.2-0.6-0.3-1.2-0.3-1.9
		c0-0.7,0.1-1.3,0.4-1.9s0.6-1.1,1-1.5c0.4-0.4,0.9-0.8,1.4-1.1s1.2-0.4,1.8-0.4s1.2,0.1,1.8,0.4c0.6,0.3,1,0.6,1.4,1.1
		c0.4,0.4,0.7,1,1,1.5c0.2,0.6,0.4,1.2,0.4,1.9c0,0.6-0.1,1.3-0.4,1.9c-0.2,0.6-0.6,1.1-1,1.5c-0.4,0.4-0.9,0.8-1.4,1.1
		C48.7,17.1,48.1,17.3,47.5,17.3z M43.8,12.5c0,0.6,0.1,1.1,0.3,1.6c0.2,0.5,0.5,0.9,0.8,1.3c0.3,0.4,0.7,0.6,1.2,0.9
		c0.4,0.2,0.9,0.3,1.4,0.3s1-0.1,1.4-0.3s0.8-0.5,1.2-0.9c0.3-0.4,0.6-0.8,0.8-1.3c0.2-0.5,0.3-1,0.3-1.6c0-0.6-0.1-1.1-0.3-1.6
		c-0.2-0.5-0.5-0.9-0.8-1.3s-0.7-0.7-1.2-0.9c-0.4-0.2-0.9-0.3-1.4-0.3s-1,0.1-1.4,0.3s-0.8,0.5-1.2,0.9c-0.3,0.4-0.6,0.8-0.8,1.3
		C43.9,11.4,43.8,11.9,43.8,12.5z"/>
	<path class="st0" d="M54.5,17.1V8.5h-1.3V7.7h1.3V7.4c0-1.2,0.2-2,0.7-2.7c0.5-0.6,1.1-1,1.9-1c0.4,0,0.7,0.1,1,0.2
		C58.5,4,58.8,4.2,59,4.4L58.7,5c-0.2-0.1-0.4-0.2-0.6-0.3c-0.2-0.1-0.5-0.1-0.8-0.1c-0.6,0-1.1,0.2-1.4,0.7
		c-0.3,0.5-0.5,1.2-0.5,2.1v0.3H58v0.7h-2.7v8.6H54.5z"/>
	<path class="st0" d="M16,32.4L5.7,52.4h3.1c1.6,0,2.9-0.5,4.2-1.6c1.2-1,1.9-2.7,2.2-5h0.7c-0.1,0.7-0.1,1.6-0.1,2.6
		c0,1.8,0.1,3.4,0.2,4.6C14.5,53,12,53,8.5,53c-3.7,0-6.4,0-8.1,0.1v-0.6l10.3-20H7.5c-1.6,0-3,0.5-4,1.4c-1.1,0.9-1.7,2.5-2,4.7
		H0.8c0.1-0.6,0.1-1.3,0.1-2.3c0-1.3-0.1-2.9-0.2-4.6c1.3,0.1,3.6,0.1,6.8,0.1c3.9,0,6.8,0,8.5-0.1V32.4z"/>
	<path class="st0" d="M36.4,52.5v0.6c-1-0.1-2.3-0.1-3.9-0.1c-2.1,0-3.7,0-4.7,0.1v-0.6c0.7,0,1.1-0.1,1.5-0.3
		c0.3-0.2,0.5-0.5,0.5-0.9c0-0.4-0.1-0.8-0.4-1.4l-1.5-3.4h-6.3l-0.4,0.8c-0.6,1.3-0.8,2.4-0.8,3.1c0,0.7,0.2,1.2,0.7,1.5
		c0.4,0.3,1.1,0.5,1.9,0.5v0.6C21.7,53,20.6,53,19.4,53c-1.1,0-1.9,0-2.4,0.1v-0.6c0.5-0.1,0.9-0.4,1.3-0.9c0.4-0.5,0.8-1.3,1.3-2.3
		L26,34.8c0.2,0,0.4,0,0.7,0c0.3,0,0.5,0,0.7,0l7.1,15.8C35.1,51.8,35.7,52.4,36.4,52.5z M27.5,45.9l-2.9-6.6l-2.9,6.6H27.5z"/>
	<path class="st0" d="M58.6,35.4c-0.7,0-1.2,0.1-1.5,0.2c-0.3,0.1-0.5,0.4-0.6,0.7c-0.1,0.3-0.2,0.9-0.2,1.7v11.9
		c0,0.8,0.1,1.3,0.2,1.6c0.1,0.3,0.3,0.6,0.6,0.7c0.3,0.1,0.8,0.2,1.5,0.2v0.6C57.6,53,56.2,53,54.2,53c-2,0-3.6,0-4.7,0.1v-0.6
		c0.7,0,1.2-0.1,1.5-0.2s0.5-0.3,0.6-0.7c0.1-0.3,0.2-0.9,0.2-1.6v-5.8H44v5.8c0,0.8,0.1,1.3,0.2,1.6c0.1,0.3,0.3,0.6,0.6,0.7
		s0.8,0.2,1.5,0.2v0.6C45.2,53,43.6,53,41.5,53c-2,0-3.4,0-4.4,0.1v-0.6c0.7,0,1.2-0.1,1.5-0.2c0.3-0.1,0.5-0.3,0.6-0.7
		c0.1-0.3,0.2-0.9,0.2-1.6V38c0-0.8-0.1-1.3-0.2-1.7c-0.1-0.3-0.3-0.6-0.6-0.7c-0.3-0.1-0.8-0.2-1.5-0.2v-0.6c1,0.1,2.4,0.1,4.4,0.1
		c2,0,3.6,0,4.7-0.1v0.6c-0.7,0-1.2,0.1-1.5,0.2c-0.3,0.1-0.5,0.4-0.6,0.7S44,37.3,44,38v5.5h7.7V38c0-0.8-0.1-1.3-0.2-1.7
		s-0.3-0.6-0.6-0.7c-0.3-0.1-0.8-0.2-1.5-0.2v-0.6c1.1,0.1,2.7,0.1,4.7,0.1c2,0,3.5,0,4.4-0.1V35.4z"/>
	<path class="st0" d="M69.7,35.4c-0.7,0-1.2,0.1-1.5,0.2c-0.3,0.1-0.5,0.4-0.6,0.7s-0.2,0.9-0.2,1.7v11.9c0,0.8,0.1,1.3,0.2,1.6
		c0.1,0.3,0.3,0.6,0.6,0.7c0.3,0.1,0.8,0.2,1.5,0.2v0.6c-1-0.1-2.5-0.1-4.4-0.1c-2.1,0-3.6,0-4.6,0.1v-0.6c0.7,0,1.2-0.1,1.5-0.2
		c0.3-0.1,0.5-0.3,0.6-0.7c0.1-0.3,0.2-0.9,0.2-1.6V38c0-0.8-0.1-1.3-0.2-1.7c-0.1-0.3-0.3-0.6-0.6-0.7c-0.3-0.1-0.8-0.2-1.5-0.2
		v-0.6c1,0.1,2.5,0.1,4.6,0.1c1.9,0,3.4,0,4.4-0.1V35.4z"/>
	<path class="st0" d="M88.7,37.1c1.7,1.5,2.6,3.7,2.6,6.6c0,1.9-0.4,3.5-1.3,4.9c-0.8,1.4-2.1,2.5-3.7,3.3c-1.6,0.8-3.6,1.2-5.8,1.2
		l-1.9,0c-1.3,0-2.2-0.1-2.8-0.1c-1.8,0-3.1,0-4.1,0.1v-0.6c0.7,0,1.2-0.1,1.5-0.2c0.3-0.1,0.5-0.3,0.6-0.7c0.1-0.3,0.2-0.9,0.2-1.6
		V38c0-0.8-0.1-1.3-0.2-1.7c-0.1-0.3-0.3-0.6-0.6-0.7c-0.3-0.1-0.8-0.2-1.5-0.2v-0.6c0.8,0.1,1.8,0.1,3.2,0.1l2.9,0
		c1.5,0,2.5-0.1,3-0.1C84.3,34.8,86.9,35.6,88.7,37.1z M79.3,35.6c-0.3,0.1-0.4,0.4-0.5,0.8c-0.1,0.4-0.1,0.9-0.1,1.6v12
		c0,0.7,0,1.3,0.1,1.6s0.3,0.6,0.5,0.8c0.3,0.1,0.7,0.2,1.2,0.2c1.5,0,2.7-0.3,3.6-1c0.9-0.7,1.5-1.6,1.9-2.9
		c0.4-1.3,0.5-2.9,0.5-4.9c0-2.9-0.5-5.1-1.4-6.4c-0.9-1.4-2.5-2-4.7-2C79.9,35.4,79.5,35.4,79.3,35.6z"/>
	<path class="st0" d="M144.6,44.5v5.2c0,0.8,0.1,1.4,0.3,1.8c0.2,0.4,0.5,0.6,0.9,0.7s1.1,0.2,2.1,0.2v0.7c-2.5-0.1-4.3-0.1-5.5-0.1
		c-1,0-2.3,0-3.8,0.1l-1,0v-0.6c0.7,0,1.1-0.1,1.5-0.2c0.3-0.1,0.5-0.3,0.6-0.7c0.1-0.3,0.2-0.9,0.2-1.6V35c0-0.8-0.1-1.3-0.2-1.7
		c-0.1-0.3-0.3-0.6-0.6-0.7c-0.3-0.1-0.8-0.2-1.5-0.2v-0.6c1,0.1,2.5,0.1,4.6,0.1l3.3,0c0.4,0,0.9,0,1.4,0c2.7,0,4.8,0.5,6.2,1.6
		c1.4,1.1,2.1,2.5,2.1,4.3c0,1.1-0.3,2.2-0.8,3.2c-0.6,1-1.5,1.9-2.8,2.5s-3.1,1-5.3,1H144.6z M145.3,32.6c-0.3,0.1-0.4,0.4-0.5,0.8
		c-0.1,0.4-0.1,0.9-0.1,1.6v8.9h1.3c1.6,0,2.7-0.5,3.4-1.6c0.6-1,0.9-2.4,0.9-4.2c0-1.9-0.3-3.4-0.9-4.3s-1.5-1.4-2.9-1.4
		C146,32.4,145.6,32.5,145.3,32.6z"/>
	<path class="st0" d="M176.3,51.8c-0.5,0.6-1,1-1.6,1.3c-0.6,0.3-1.4,0.4-2.3,0.4c-1.1,0-2-0.2-2.6-0.7c-0.6-0.4-1-1-1.2-1.8
		l-0.9-3.5c-0.2-1.1-0.6-1.9-1-2.2c-0.5-0.4-1.1-0.6-2-0.6h-1v5.2c0,0.8,0.1,1.3,0.2,1.6c0.1,0.3,0.3,0.6,0.6,0.7
		c0.3,0.1,0.8,0.2,1.5,0.2v0.6c-1.1-0.1-2.8-0.1-4.9-0.1c-1.9,0-3.3,0-4.2,0.1v-0.6c0.7,0,1.2-0.1,1.5-0.2c0.3-0.1,0.5-0.3,0.6-0.7
		c0.1-0.3,0.2-0.9,0.2-1.6V38c0-0.8-0.1-1.3-0.2-1.7c-0.1-0.3-0.3-0.6-0.6-0.7c-0.3-0.1-0.8-0.2-1.5-0.2v-0.6c0.9,0.1,2.3,0.1,4,0.1
		l3.4,0c0.4,0,0.9,0,1.4,0c2.7,0,4.7,0.4,6,1.2c1.3,0.8,2,1.9,2,3.4c0,1.2-0.5,2.3-1.6,3.3c-1.1,0.9-2.8,1.5-5.3,1.8
		c0.3,0,0.6,0,0.9,0.1c1.4,0.2,2.6,0.5,3.4,1s1.4,1.2,1.6,2.3l0.6,2.7c0.1,0.6,0.3,1,0.5,1.2c0.2,0.2,0.4,0.4,0.8,0.4
		c0.4,0,0.8-0.2,1.3-0.7L176.3,51.8z M164.3,35.6c-0.2,0.1-0.4,0.4-0.4,0.8c-0.1,0.4-0.1,0.9-0.1,1.6v6.1h1.3c1.5,0,2.5-0.4,3-1.1
		c0.5-0.8,0.8-1.8,0.8-3.2c0-1.5-0.3-2.5-0.8-3.3c-0.6-0.7-1.5-1.1-2.8-1.1C164.8,35.4,164.5,35.5,164.3,35.6z"/>
	<path class="st0" d="M185.9,35.4c-0.7,0-1.2,0.1-1.5,0.2c-0.3,0.1-0.5,0.4-0.6,0.7c-0.1,0.3-0.2,0.9-0.2,1.7v11.9
		c0,0.8,0.1,1.3,0.2,1.6c0.1,0.3,0.3,0.6,0.6,0.7c0.3,0.1,0.8,0.2,1.5,0.2v0.6c-1-0.1-2.5-0.1-4.4-0.1c-2.1,0-3.6,0-4.6,0.1v-0.6
		c0.7,0,1.2-0.1,1.5-0.2s0.5-0.3,0.6-0.7c0.1-0.3,0.2-0.9,0.2-1.6V38c0-0.8-0.1-1.3-0.2-1.7c-0.1-0.3-0.3-0.6-0.6-0.7
		c-0.3-0.1-0.8-0.2-1.5-0.2v-0.6c1,0.1,2.5,0.1,4.6,0.1c1.9,0,3.4,0,4.4-0.1V35.4z"/>
	<path class="st0" d="M206.8,35.4c-0.7,0.1-1.1,0.3-1.5,0.4c-0.3,0.2-0.5,0.5-0.6,1c-0.1,0.4-0.2,1.1-0.2,2v14.3l-0.8,0l-0.8,0
		l-12-14.9v10.8c0,0.9,0.1,1.5,0.2,2c0.2,0.5,0.5,0.8,0.9,1s1.1,0.3,2,0.5v0.6c-0.9-0.1-2-0.1-3.4-0.1c-1.1,0-2,0-2.6,0.1v-0.6
		c0.7-0.1,1.1-0.3,1.5-0.5c0.3-0.2,0.5-0.5,0.6-1c0.1-0.4,0.2-1.1,0.2-2V38c0-0.8-0.1-1.3-0.2-1.7c-0.1-0.3-0.3-0.6-0.6-0.7
		c-0.3-0.1-0.8-0.2-1.5-0.2v-0.6c0.6,0.1,1.5,0.1,2.6,0.1c1.4,0,2.6,0,3.7-0.1l9.6,11.9v-7.9c0-0.9-0.1-1.5-0.2-2s-0.5-0.8-0.9-1
		c-0.4-0.2-1.1-0.3-2-0.4v-0.6c0.9,0.1,2,0.1,3.4,0.1c1.1,0,2,0,2.6-0.1V35.4z"/>
	<path class="st0" d="M221,34.9c0.7,0.3,1.5,0.8,2.2,1.5c0.2,0.2,0.4,0.3,0.6,0.3c0.4,0,0.7-0.6,0.8-1.8h0.7
		c-0.1,1.2-0.1,3.3-0.1,6.3h-0.7c-0.2-1.1-0.4-1.9-0.6-2.4c-0.2-0.5-0.5-1-0.9-1.5c-0.6-0.7-1.2-1.2-1.9-1.5
		c-0.7-0.4-1.4-0.6-2.2-0.6c-1.1,0-2.1,0.4-2.9,1.1c-0.8,0.7-1.5,1.7-1.9,3c-0.5,1.3-0.7,2.9-0.7,4.7c0,1.8,0.2,3.4,0.7,4.7
		c0.5,1.3,1.2,2.3,2,3c0.9,0.7,1.8,1,2.9,1c0.8,0,1.5-0.2,2.3-0.6s1.4-0.9,1.9-1.5c0.4-0.5,0.7-1,0.9-1.6c0.2-0.6,0.3-1.4,0.5-2.5
		h0.7c0,3.1,0,5.3,0.1,6.6h-0.7c-0.1-0.6-0.2-1.1-0.3-1.4c-0.1-0.3-0.3-0.4-0.5-0.4c-0.2,0-0.4,0.1-0.6,0.3
		c-0.7,0.6-1.5,1.1-2.3,1.4c-0.8,0.3-1.8,0.5-2.9,0.5c-1.9,0-3.6-0.4-5-1.1c-1.5-0.7-2.6-1.8-3.4-3.2c-0.8-1.4-1.2-3.1-1.2-5
		c0-1.9,0.4-3.6,1.3-5.1s2-2.6,3.4-3.4c1.5-0.8,3.1-1.2,4.9-1.2C219.3,34.4,220.3,34.6,221,34.9z"/>
	<path class="st0" d="M243.9,53.1c-1.3-0.1-3.5-0.1-6.6-0.1c-4.1,0-7.2,0-9.3,0.1v-0.6c0.7,0,1.2-0.1,1.5-0.2
		c0.3-0.1,0.5-0.3,0.6-0.7c0.1-0.3,0.2-0.9,0.2-1.6V38c0-0.8-0.1-1.3-0.2-1.7s-0.3-0.6-0.6-0.7c-0.3-0.1-0.8-0.2-1.5-0.2v-0.6
		c2.1,0.1,5.2,0.1,9.3,0.1c2.8,0,4.8,0,6-0.1c-0.1,1.3-0.2,2.5-0.2,3.6c0,0.8,0,1.4,0.1,1.9h-0.7c-0.3-1.7-0.8-2.9-1.6-3.7
		c-0.7-0.7-1.8-1.1-3.1-1.1h-1.1c-0.5,0-0.9,0-1.2,0.1s-0.4,0.3-0.6,0.5c-0.1,0.3-0.2,0.7-0.2,1.3v6.1h1.4c0.9,0,1.6-0.3,2.1-1
		c0.5-0.6,0.8-1.4,0.9-2.3h0.7c-0.1,0.7-0.1,1.5-0.1,2.3v1.2c0,0.9,0.1,2.1,0.2,3.5h-0.7c-0.1-0.9-0.5-1.7-0.9-2.3
		c-0.5-0.6-1.2-0.9-2.2-0.9h-1.4v6.2c0,0.6,0.1,1,0.2,1.3c0.1,0.3,0.3,0.5,0.6,0.5s0.6,0.1,1.2,0.1h1.3c1.4,0,2.5-0.4,3.3-1.2
		s1.4-2.2,1.7-4.1h0.7c-0.1,0.6-0.1,1.3-0.1,2.2C243.7,50.3,243.8,51.6,243.9,53.1z"/>
	<g>
		<path class="st0" d="M110.8,34.9v0.5c-0.6,0.1-1,0.3-1.3,0.5s-0.5,0.6-0.6,1.1c-0.1,0.5-0.1,1.2-0.1,2.2v6.7
			c0,1.1-0.1,2.2-0.2,3.1c-0.2,1-0.5,1.8-0.9,2.5c-0.5,0.8-1.2,1.4-2.1,1.8s-2.2,0.7-3.7,0.7c-0.9,0-1.7-0.1-2.7-0.3
			c-0.9-0.2-1.7-0.5-2.5-1c-0.6-0.5-1.1-1-1.4-1.6c-0.3-0.6-0.5-1.3-0.7-2.2c-0.1-0.8-0.2-1.8-0.2-2.9v-8.3c0-0.7-0.1-1.1-0.2-1.4
			c-0.1-0.3-0.3-0.5-0.6-0.6c-0.3-0.1-0.7-0.2-1.3-0.2v-0.5c0.5,0,1.2,0,2,0.1s1.7,0,2.6,0s1.8,0,2.6,0s1.5,0,2.1-0.1v0.5
			c-0.6,0-1.1,0.1-1.4,0.2c-0.3,0.1-0.5,0.3-0.7,0.6c-0.1,0.3-0.2,0.8-0.2,1.4v10.4c0,0.9,0.1,1.6,0.2,2.2c0.1,0.6,0.4,1.2,0.6,1.6
			c0.3,0.4,0.7,0.7,1.1,0.9c0.5,0.2,1,0.3,1.7,0.3c1.3,0,2.3-0.3,3-0.9c0.7-0.6,1.2-1.4,1.5-2.4c0.3-1,0.4-2.2,0.4-3.6v-6.6
			c0-1.1-0.1-1.9-0.2-2.5c-0.1-0.6-0.4-1-0.8-1.2c-0.4-0.3-1-0.4-1.8-0.5v-0.5c0.4,0,0.8,0,1.4,0.1c0.6,0,1.1,0,1.7,0
			c0.4,0,0.9,0,1.3,0C110.2,34.9,110.6,34.9,110.8,34.9z"/>
		<path class="st0" d="M121.5,34.9v0.5c-0.6,0-1.1,0.1-1.4,0.2c-0.3,0.1-0.5,0.3-0.7,0.6c-0.1,0.3-0.2,0.8-0.2,1.4v13.5
			c0,0.5,0,0.9,0.1,1.2c0.1,0.3,0.2,0.4,0.5,0.5c0.2,0.1,0.6,0.1,1,0.1h1.1c0.6,0,1.1-0.2,1.7-0.5c0.6-0.3,1.1-0.8,1.6-1.3
			c0.5-0.6,0.9-1.2,1.3-2c0.4-0.7,0.6-1.6,0.8-2.4h0.6c-0.1,0.6-0.1,1.4-0.1,2.4c0,0.4,0,1.1,0,1.9s0.1,1.7,0.2,2.6
			c-0.9,0-2-0.1-3.2-0.1c-1.2,0-2.2,0-3.2,0c-0.5,0-1.1,0-1.8,0s-1.6,0-2.4,0c-0.9,0-1.8,0-2.6,0c-0.9,0-1.7,0-2.5,0v-0.5
			c0.6,0,1-0.1,1.3-0.2s0.5-0.3,0.6-0.6c0.1-0.3,0.2-0.8,0.2-1.4V37.7c0-0.7-0.1-1.1-0.2-1.4c-0.1-0.3-0.3-0.5-0.6-0.6
			c-0.3-0.1-0.7-0.2-1.3-0.2v-0.5c0.5,0,1.2,0,2,0.1s1.7,0,2.7,0c0.9,0,1.7,0,2.6,0S120.9,34.9,121.5,34.9z"/>
	</g>
</g>
</svg>
