<svg id="Layer_1" data-name="Layer 1" xmlns="http://www.w3.org/2000/svg" viewBox="0 0 206.46 49.74"><title>Logo</title><path d="M15.36,13.77a3.15,3.15,0,0,1-.27,1.3,3.33,3.33,0,0,1-.74,1.05,3.38,3.38,0,0,1-1.1.7,3.55,3.55,0,0,1-1.33.25h-6V4.3h6a2.53,2.53,0,0,1,1.21.29,3,3,0,0,1,.92.75,3.42,3.42,0,0,1,.58,1,3.51,3.51,0,0,1,.21,1.18,3.4,3.4,0,0,1-.49,1.78A2.89,2.89,0,0,1,13,10.53a3.18,3.18,0,0,1,1.74,1.21A3.39,3.39,0,0,1,15.36,13.77ZM6.86,5.13v5.11h4.68a2.11,2.11,0,0,0,1-.22,2.5,2.5,0,0,0,.75-.57,2.72,2.72,0,0,0,.67-1.77,2.79,2.79,0,0,0-.17-1,2.7,2.7,0,0,0-.47-.81,2.23,2.23,0,0,0-.71-.56,2,2,0,0,0-.92-.21Zm7.58,8.51a2.77,2.77,0,0,0-.18-1,2.74,2.74,0,0,0-.5-.85,2.42,2.42,0,0,0-.76-.58A2.12,2.12,0,0,0,12,11H6.86v5.24h5.06a2.32,2.32,0,0,0,1-.22,2.48,2.48,0,0,0,.79-.58,3,3,0,0,0,.53-.84A2.47,2.47,0,0,0,14.44,13.64Z" transform="translate(-5.44 -3.76)" style="fill:#fff"/><path d="M17.66,3.94h.92V15.22a1.14,1.14,0,0,0,.3.83,1.09,1.09,0,0,0,.82.31,3.15,3.15,0,0,0,.48,0,2.55,2.55,0,0,0,.51-.14l.18.72a3.82,3.82,0,0,1-.76.21,4.49,4.49,0,0,1-.77.08,1.64,1.64,0,0,1-1.21-.46,1.67,1.67,0,0,1-.46-1.23Z" transform="translate(-5.44 -3.76)" style="fill:#fff"/><path d="M26.18,17.26a4.3,4.3,0,0,1-1.83-.39,4.52,4.52,0,0,1-1.45-1.05,4.86,4.86,0,0,1-1-1.55,5.08,5.08,0,0,1-.34-1.85A5.05,5.05,0,0,1,22.92,9a4.53,4.53,0,0,1,1.45-1.05,4.26,4.26,0,0,1,1.81-.39,4.2,4.2,0,0,1,1.8.39A4.67,4.67,0,0,1,29.43,9a4.91,4.91,0,0,1,1,1.55,5.08,5.08,0,0,1-1,5.27A4.52,4.52,0,0,1,28,16.87,4.26,4.26,0,0,1,26.18,17.26Zm-3.67-4.81A4.2,4.2,0,0,0,22.79,14a4.07,4.07,0,0,0,.78,1.27,3.72,3.72,0,0,0,1.16.85,3.36,3.36,0,0,0,2.84,0,3.69,3.69,0,0,0,1.17-.87A4.19,4.19,0,0,0,29.54,14a4.4,4.4,0,0,0,0-3.13,4.1,4.1,0,0,0-.79-1.28,3.91,3.91,0,0,0-1.16-.87,3.16,3.16,0,0,0-1.41-.32,3.21,3.21,0,0,0-1.42.32,3.7,3.7,0,0,0-1.16.88,4.38,4.38,0,0,0-.79,1.3A4.22,4.22,0,0,0,22.51,12.45Z" transform="translate(-5.44 -3.76)" style="fill:#fff"/><path d="M36.69,17.22a3.94,3.94,0,0,1-1.78-.4,4.48,4.48,0,0,1-1.4-1.08,5.17,5.17,0,0,1-.92-1.54,4.91,4.91,0,0,1-.33-1.78,5.42,5.42,0,0,1,.31-1.84A4.91,4.91,0,0,1,33.47,9,4.28,4.28,0,0,1,34.84,8a4,4,0,0,1,1.77-.4,3.62,3.62,0,0,1,2.13.64,6.13,6.13,0,0,1,1.54,1.56v-2h.83v9.54a3.7,3.7,0,0,1-.36,1.67,3.5,3.5,0,0,1-1,1.2,4.2,4.2,0,0,1-1.4.72,5.79,5.79,0,0,1-1.68.24,6.39,6.39,0,0,1-1.46-.15,4.35,4.35,0,0,1-1.14-.43,3.77,3.77,0,0,1-.88-.68,4.9,4.9,0,0,1-.68-.89l.61-.41a3.36,3.36,0,0,0,1.51,1.39,4.79,4.79,0,0,0,2,.44,4.58,4.58,0,0,0,1.36-.2,3.3,3.3,0,0,0,1.12-.58,2.8,2.8,0,0,0,.76-1,3.07,3.07,0,0,0,.28-1.35V15.21a4.31,4.31,0,0,1-1.53,1.47A4,4,0,0,1,36.69,17.22Zm.22-.77a3.12,3.12,0,0,0,1.16-.23,4.08,4.08,0,0,0,1-.58,3.41,3.41,0,0,0,.76-.81,2.28,2.28,0,0,0,.37-.9V10.85a4,4,0,0,0-.58-1,3.87,3.87,0,0,0-.82-.78,4.09,4.09,0,0,0-1-.51,3.17,3.17,0,0,0-1.07-.19,3.12,3.12,0,0,0-1.51.36,3.62,3.62,0,0,0-1.12.94,4.21,4.21,0,0,0-.7,1.3,4.62,4.62,0,0,0-.24,1.47A4.08,4.08,0,0,0,33.47,14a4.23,4.23,0,0,0,.79,1.28,3.74,3.74,0,0,0,1.19.88A3.37,3.37,0,0,0,36.91,16.45Z" transform="translate(-5.44 -3.76)" style="fill:#fff"/><path d="M52.48,17.26a4.3,4.3,0,0,1-1.83-.39,4.52,4.52,0,0,1-1.45-1.05,4.86,4.86,0,0,1-1-1.55,5.08,5.08,0,0,1-.34-1.85A5.05,5.05,0,0,1,49.22,9a4.53,4.53,0,0,1,1.45-1.05,4.26,4.26,0,0,1,1.81-.39,4.2,4.2,0,0,1,1.8.39A4.67,4.67,0,0,1,55.72,9a4.91,4.91,0,0,1,1,1.55,5.08,5.08,0,0,1-1,5.27,4.52,4.52,0,0,1-1.45,1.05A4.26,4.26,0,0,1,52.48,17.26ZM48.8,12.45A4.2,4.2,0,0,0,49.09,14a4.07,4.07,0,0,0,.78,1.27,3.72,3.72,0,0,0,1.16.85,3.36,3.36,0,0,0,2.84,0A3.69,3.69,0,0,0,55,15.26,4.19,4.19,0,0,0,55.84,14a4.4,4.4,0,0,0,0-3.13A4.1,4.1,0,0,0,55,9.56a3.91,3.91,0,0,0-1.16-.87,3.16,3.16,0,0,0-1.41-.32,3.21,3.21,0,0,0-1.42.32,3.7,3.7,0,0,0-1.16.88,4.38,4.38,0,0,0-.79,1.3A4.22,4.22,0,0,0,48.8,12.45Z" transform="translate(-5.44 -3.76)" style="fill:#fff"/><path d="M59.48,17.08V8.46H58.16V7.72h1.31V7.41a4.5,4.5,0,0,1,.7-2.69,2.27,2.27,0,0,1,1.94-1,3.41,3.41,0,0,1,1,.16,2.45,2.45,0,0,1,.83.43L63.67,5a2.1,2.1,0,0,0-.62-.32,2.38,2.38,0,0,0-.77-.13,1.61,1.61,0,0,0-1.41.73,3.76,3.76,0,0,0-.5,2.12v.32H63v.74H60.38v8.62Z" transform="translate(-5.44 -3.76)" style="fill:#fff"/><path d="M21,32.44,10.72,52.39h3.12A6.19,6.19,0,0,0,18,50.83a7.26,7.26,0,0,0,2.17-5h.69q-.09,1-.09,2.64A40.58,40.58,0,0,0,21,53.08Q18.76,53,13.51,53q-5.58,0-8.07.09v-.6l10.29-20H12.49a5.82,5.82,0,0,0-4,1.41,7.31,7.31,0,0,0-2,4.74H5.8q.09-.87.09-2.28,0-2-.21-4.56,2,.09,6.75.09,5.91,0,8.55-.09Z" transform="translate(-5.44 -3.76)" style="fill:#fff"/><path d="M41.38,52.48v.6Q39.94,53,37.45,53q-3.21,0-4.74.09v-.6a3.75,3.75,0,0,0,1.47-.32.89.89,0,0,0,.48-.85A3.28,3.28,0,0,0,34.27,50l-1.5-3.42h-6.3l-.36.81a8.64,8.64,0,0,0-.84,3.09,1.73,1.73,0,0,0,.66,1.5,3.6,3.6,0,0,0,1.95.54v.6Q26.17,53,24.43,53a24.14,24.14,0,0,0-2.43.09v-.6a2.37,2.37,0,0,0,1.33-.92,11,11,0,0,0,1.31-2.29L31,34.78a6.05,6.05,0,0,0,.69,0,5.59,5.59,0,0,0,.69,0l7.14,15.78Q40.36,52.42,41.38,52.48ZM32.5,45.94l-2.88-6.57-2.88,6.57Z" transform="translate(-5.44 -3.76)" style="fill:#fff"/><path d="M63.55,35.44a5.17,5.17,0,0,0-1.47.24,1,1,0,0,0-.61.69A5.87,5.87,0,0,0,61.3,38V49.9a5.87,5.87,0,0,0,.17,1.65,1,1,0,0,0,.63.69,5.2,5.2,0,0,0,1.46.24v.6Q62.17,53,59.17,53t-4.71.09v-.6a5.13,5.13,0,0,0,1.47-.24,1,1,0,0,0,.61-.69,5.89,5.89,0,0,0,.17-1.65V44.08H49V49.9a5.89,5.89,0,0,0,.17,1.65,1,1,0,0,0,.63.69,5.21,5.21,0,0,0,1.46.24v.6Q49.6,53,46.54,53t-4.38.09v-.6a5.13,5.13,0,0,0,1.47-.24,1,1,0,0,0,.61-.69,5.89,5.89,0,0,0,.17-1.65V38a5.89,5.89,0,0,0-.17-1.65,1,1,0,0,0-.63-.69,5.25,5.25,0,0,0-1.46-.24v-.6q1.44.09,4.38.09t4.71-.09v.6a5.16,5.16,0,0,0-1.47.24,1,1,0,0,0-.62.69A5.89,5.89,0,0,0,49,38v5.46h7.71V38a5.89,5.89,0,0,0-.17-1.65,1,1,0,0,0-.63-.69,5.25,5.25,0,0,0-1.46-.24v-.6q1.68.09,4.71.09t4.38-.09Z" transform="translate(-5.44 -3.76)" style="fill:#fff"/><path d="M74.68,35.44a5.16,5.16,0,0,0-1.47.24,1,1,0,0,0-.62.69A5.89,5.89,0,0,0,72.43,38V49.9a5.89,5.89,0,0,0,.17,1.65,1,1,0,0,0,.62.69,5.12,5.12,0,0,0,1.47.24v.6Q73.15,53,70.24,53q-3.15,0-4.65.09v-.6a5.13,5.13,0,0,0,1.47-.24,1,1,0,0,0,.61-.69,5.89,5.89,0,0,0,.17-1.65V38a5.89,5.89,0,0,0-.17-1.65,1,1,0,0,0-.63-.69,5.25,5.25,0,0,0-1.46-.24v-.6q1.47.09,4.65.09,2.91,0,4.44-.09Z" transform="translate(-5.44 -3.76)" style="fill:#fff"/><path d="M93.67,37.1q2.61,2.26,2.61,6.61A9.46,9.46,0,0,1,95,48.65a8.31,8.31,0,0,1-3.69,3.27,13.37,13.37,0,0,1-5.79,1.16l-1.92,0Q81.7,53,80.8,53q-2.67,0-4.08.09v-.6a5.13,5.13,0,0,0,1.47-.24,1,1,0,0,0,.61-.69A5.89,5.89,0,0,0,79,49.9V38a5.89,5.89,0,0,0-.17-1.65,1,1,0,0,0-.61-.69,5.17,5.17,0,0,0-1.47-.24v-.6q1.14.09,3.21.09l2.88,0q2.22-.06,3-.06Q91.06,34.84,93.67,37.1Zm-9.42-1.52a1.15,1.15,0,0,0-.54.75A6.5,6.5,0,0,0,83.56,38V50a6.5,6.5,0,0,0,.15,1.62,1.14,1.14,0,0,0,.54.75,2.62,2.62,0,0,0,1.2.21,6,6,0,0,0,3.63-1,5.2,5.2,0,0,0,1.86-2.87,18.12,18.12,0,0,0,.54-4.86q0-4.38-1.38-6.42t-4.68-2A2.55,2.55,0,0,0,84.25,35.59Z" transform="translate(-5.44 -3.76)" style="fill:#fff"/><path d="M112.63,44.5v5.22a4.47,4.47,0,0,0,.25,1.75,1.32,1.32,0,0,0,.9.74,9.09,9.09,0,0,0,2.05.21v.66q-3.69-.09-5.49-.09-1.5,0-3.78.06l-1,0v-.6a5.21,5.21,0,0,0,1.46-.24,1,1,0,0,0,.63-.69,5.9,5.9,0,0,0,.17-1.65V35a5.91,5.91,0,0,0-.17-1.65,1,1,0,0,0-.63-.69,5.25,5.25,0,0,0-1.46-.24v-.6q1.53.09,4.56.09l3.33,0c.4,0,.86,0,1.38,0a10.15,10.15,0,0,1,6.18,1.6,5.12,5.12,0,0,1,2.13,4.31,6.18,6.18,0,0,1-3.67,5.7,11.69,11.69,0,0,1-5.29,1Zm.67-11.85a1.16,1.16,0,0,0-.52.75,6.47,6.47,0,0,0-.15,1.62V43.9h1.29a3.58,3.58,0,0,0,3.36-1.56,8.23,8.23,0,0,0,.93-4.23,8.36,8.36,0,0,0-.86-4.29,3.11,3.11,0,0,0-2.87-1.38A2.54,2.54,0,0,0,113.3,32.65Z" transform="translate(-5.44 -3.76)" style="fill:#fff"/><path d="M144.25,51.82a4.82,4.82,0,0,1-1.62,1.26,5.32,5.32,0,0,1-2.25.42,4.52,4.52,0,0,1-2.64-.66,3,3,0,0,1-1.2-1.77l-.87-3.54a3.85,3.85,0,0,0-1-2.24,3.08,3.08,0,0,0-2-.55h-1V49.9a5.86,5.86,0,0,0,.17,1.65,1,1,0,0,0,.63.69,5.21,5.21,0,0,0,1.46.24v.6Q132.22,53,129,53q-2.79,0-4.2.09v-.6a5.14,5.14,0,0,0,1.47-.24,1,1,0,0,0,.62-.69,5.91,5.91,0,0,0,.16-1.65V38a5.92,5.92,0,0,0-.16-1.65,1,1,0,0,0-.62-.69,5.18,5.18,0,0,0-1.47-.24v-.6q1.41.09,4,.09l3.42,0c.4,0,.85,0,1.35,0a11.8,11.8,0,0,1,6,1.21,3.77,3.77,0,0,1,2,3.38,4.26,4.26,0,0,1-1.59,3.27q-1.59,1.41-5.31,1.8a4.47,4.47,0,0,1,.87.09,8.8,8.8,0,0,1,3.41,1,3.47,3.47,0,0,1,1.63,2.28l.63,2.67a3.08,3.08,0,0,0,.51,1.2.94.94,0,0,0,.75.36,1.88,1.88,0,0,0,1.29-.66Zm-12-16.17a1.12,1.12,0,0,0-.45.75,8,8,0,0,0-.12,1.62v6.12H133A3.53,3.53,0,0,0,136,43a5.41,5.41,0,0,0,.82-3.21,5.36,5.36,0,0,0-.82-3.27,3.28,3.28,0,0,0-2.78-1.08A1.88,1.88,0,0,0,132.25,35.65Z" transform="translate(-5.44 -3.76)" style="fill:#fff"/><path d="M153.91,35.44a5.17,5.17,0,0,0-1.47.24,1,1,0,0,0-.62.69,5.92,5.92,0,0,0-.16,1.65V49.9a5.91,5.91,0,0,0,.16,1.65,1,1,0,0,0,.62.69,5.13,5.13,0,0,0,1.47.24v.6q-1.53-.09-4.44-.09-3.15,0-4.65.09v-.6a5.12,5.12,0,0,0,1.47-.24,1,1,0,0,0,.61-.69,5.86,5.86,0,0,0,.17-1.65V38a5.86,5.86,0,0,0-.17-1.65,1,1,0,0,0-.63-.69,5.25,5.25,0,0,0-1.46-.24v-.6q1.47.09,4.65.09,2.91,0,4.44-.09Z" transform="translate(-5.44 -3.76)" style="fill:#fff"/><path d="M174.76,35.44a3.84,3.84,0,0,0-1.46.45,1.52,1.52,0,0,0-.63,1,9,9,0,0,0-.16,2V53.14l-.81,0-.78,0-12-14.91V49.06a6.29,6.29,0,0,0,.24,2,1.65,1.65,0,0,0,.87,1,6.61,6.61,0,0,0,2,.45v.6q-1.35-.09-3.42-.09-1.65,0-2.61.09v-.6a3.84,3.84,0,0,0,1.46-.45,1.52,1.52,0,0,0,.63-1,9,9,0,0,0,.16-2V38a5.92,5.92,0,0,0-.16-1.65,1,1,0,0,0-.63-.69,5.24,5.24,0,0,0-1.46-.24v-.6q1,.09,2.61.09,2.13,0,3.66-.09l9.57,11.88V38.86a6.29,6.29,0,0,0-.24-2,1.64,1.64,0,0,0-.88-1,6.74,6.74,0,0,0-2-.45v-.6q1.32.09,3.42.09,1.68,0,2.61-.09Z" transform="translate(-5.44 -3.76)" style="fill:#fff"/><path d="M189,34.91a9.94,9.94,0,0,1,2.22,1.46,1,1,0,0,0,.57.27q.6,0,.78-1.8h.69q-.12,1.8-.12,6.3h-.69a13.15,13.15,0,0,0-.6-2.35,6.07,6.07,0,0,0-.9-1.49,6.35,6.35,0,0,0-1.9-1.54,4.72,4.72,0,0,0-2.21-.55A4.27,4.27,0,0,0,184,36.26a6.84,6.84,0,0,0-1.9,3,14.63,14.63,0,0,0-.68,4.71,13.48,13.48,0,0,0,.74,4.72,6.55,6.55,0,0,0,2,3,4.61,4.61,0,0,0,2.91,1,5.13,5.13,0,0,0,2.3-.55,5.77,5.77,0,0,0,1.93-1.54,4.89,4.89,0,0,0,.87-1.62,17.64,17.64,0,0,0,.51-2.52h.69q0,4.71.12,6.6h-.69a5.15,5.15,0,0,0-.27-1.37c-.12-.29-.28-.43-.48-.43a1.09,1.09,0,0,0-.6.27A9.2,9.2,0,0,1,189.13,53a7.34,7.34,0,0,1-2.88.51,11,11,0,0,1-5-1.11,8,8,0,0,1-3.4-3.21,9.89,9.89,0,0,1-1.21-5,10.09,10.09,0,0,1,1.26-5.07,8.86,8.86,0,0,1,3.43-3.44,9.89,9.89,0,0,1,4.91-1.21A6.82,6.82,0,0,1,189,34.91Z" transform="translate(-5.44 -3.76)" style="fill:#fff"/><path d="M211.9,53.08Q210,53,205.33,53q-6.18,0-9.3.09v-.6a5.14,5.14,0,0,0,1.47-.24,1,1,0,0,0,.61-.69,5.87,5.87,0,0,0,.17-1.65V38a5.87,5.87,0,0,0-.17-1.65,1,1,0,0,0-.63-.69,5.25,5.25,0,0,0-1.46-.24v-.6q3.12.09,9.3.09,4.2,0,6-.09a34.82,34.82,0,0,0-.21,3.6,15,15,0,0,0,.09,1.86h-.69a6.74,6.74,0,0,0-1.56-3.67,4.17,4.17,0,0,0-3.06-1.09h-1.11a3.8,3.8,0,0,0-1.17.13.9.9,0,0,0-.55.54,3.59,3.59,0,0,0-.17,1.28V43.6h1.41a2.41,2.41,0,0,0,2.09-1,5.55,5.55,0,0,0,.94-2.26H208q-.09,1-.09,2.34v1.2q0,1.35.18,3.54h-.69a4.76,4.76,0,0,0-.94-2.33,2.62,2.62,0,0,0-2.18-.92h-1.41v6.24a3.58,3.58,0,0,0,.17,1.27.9.9,0,0,0,.55.54,3.8,3.8,0,0,0,1.17.13H206a4.49,4.49,0,0,0,3.35-1.23,7.62,7.62,0,0,0,1.7-4.14h.69a20.85,20.85,0,0,0-.09,2.16Q211.69,50.89,211.9,53.08Z" transform="translate(-5.44 -3.76)" style="fill:#fff"/></svg>